<svg 
  xmlns="http://www.w3.org/2000/svg"
  width="64.0" 
  height="64.0" 
  viewBox="0 0 64.0 64.0" 
  style="background-color: black">
  <ellipse 
  cx="22.230999626778228" 
  cy="38.24924590699977" 
  rx="7.609748393961183" 
  ry="7.941508413303738"
  transform="rotate(197.93700074403978, 22.230999626778228, 38.24924590699977)"
  fill="green" /><path d="M 5.713929588593037 44.63951262549907 L 18.585242207961787 41.90768257289603 L 21.31707226056483 54.77899519226477 L 8.44575964119608 57.51082524486782 L 5.713929588593037 44.63951262549907" fill="magenta" /><path d="M 59.57111080776562 21.403613372167744 L 57.55181376217109 18.62988517294248 L 54.179554720574906 21.08491761684835 L 53.00220567274561 19.46769826746152 L 56.3744647143418 17.01266582355565 L 54.35516766874727 14.23893762433039 L 55.9723870181341 13.061588576501094 L 57.99168406372863 15.835316775726357 L 61.36394310532481 13.380284331820489 L 62.5412921531541 14.997503681207316 L 59.16903311155792 17.452536125113184 L 61.18833015715245 20.226264324338445 L 59.57111080776562 21.403613372167744" fill="green" /><path d="M 25.97561553917386 4.221950693963305 L 24.369839408038672 10.409389977174115 L 13.340523383796313 7.547040691172751 L 14.946299514931502 1.359601407961943 L 25.97561553917386 4.221950693963305" fill="blue" /><path 
  d="M28.218737368505714,19.21484898816508 A1,1 0 0,1 32.794990427064114,5.613452582674697"
  fill="red" />
</svg>