<svg 
  xmlns="http://www.w3.org/2000/svg"
  width="64.0" 
  height="64.0" 
  viewBox="0 0 64.0 64.0" 
  style="background-color: black">
  <ellipse 
  cx="21.64959780727405" 
  cy="48.72730615217245" 
  rx="3.368203136320072" 
  ry="7.362993142933326"
  transform="rotate(263.238048853328, 21.64959780727405, 48.72730615217245)"
  fill="white" /><path d="M 49.61277850837905 18.267463197820387 L 42.037452380882996 29.790606725095735 L 36.314215224186555 21.91665725465534 L 49.61277850837905 18.267463197820387" fill="red" /><path 
  d="M2.6507692548510526,41.1268014257222 A1,1 0 0,1 10.454122081790455,51.15215270225885"
  fill="red" /><path d="M 12.597533127357172 24.33169331055931 L 9.04988126381544 21.597327223343925 L 6.636923127060622 24.727974385232944 L 3.7726423139213985 22.520319118887087 L 6.1856004506762154 19.389671956998072 L 2.637948587134481 16.655305869782687 L 4.8456038534803385 13.791025056643461 L 8.393255717022072 16.525391143858844 L 10.806213853776889 13.394743981969828 L 13.670494666916113 15.602399248315685 L 11.257536530161296 18.7330464102047 L 14.805188393703029 21.467412497420085 L 12.597533127357172 24.33169331055931" fill="green" /><path d="M 31.343656169238997 37.360109076530186 L 30.249783473926634 21.831357090022635 L 38.73989602501051 21.233298578441747 L 39.83376872032287 36.7620505649493 L 31.343656169238997 37.360109076530186" fill="blue" />
</svg>