<svg 
  xmlns="http://www.w3.org/2000/svg"
  width="64.0" 
  height="64.0" 
  viewBox="0 0 64.0 64.0" 
  style="background-color: black">
  <path d="M 22.551401765821456 14.228415329504944 L 22.461394229220073 6.060537734592772 L 29.84266704780841 10.546055169253766 L 22.551401765821456 14.228415329504944" fill="gray" /><path d="M 43.38781170491963 34.89999808965711 L 46.86589159746086 42.49702304817287 L 40.65555829187565 42.7959856305617 L 43.38781170491963 34.89999808965711" fill="gray" /><path 
  d="M41.4509895050442,30.472440586702866 A1,1 0 0,1 40.86114148247882,39.34304380527164"
  fill="red" /><path d="M 13.774998015432649 56.050596765485395 L 16.335000149814146 56.970625405930356 L 16.909902690382552 55.37094506314814 L 19.783198911843286 56.40356717729527 L 19.20829637127488 58.00324752007749 L 21.768298505656375 58.923276160522455 L 20.735676391509248 61.79657238198319 L 18.175674257127753 60.87654374153822 L 17.600771716559347 62.47622408432044 L 14.727475495098611 61.44360197017331 L 15.302378035667017 59.8439216273911 L 12.74237590128552 58.92389298694613 L 13.774998015432649 56.050596765485395" fill="green" /><path d="M 50.26347022996854 54.42716450558511 L 36.70141669131152 60.01213134691355 L 32.62143814980854 50.10466206581147 L 46.183491688465566 44.51969522448304 L 50.26347022996854 54.42716450558511" fill="blue" />
</svg>