<svg 
  xmlns="http://www.w3.org/2000/svg"
  width="64.0" 
  height="64.0" 
  viewBox="0 0 64.0 64.0" 
  style="background-color: black">
  <path d="M 42.992186444005895 26.04581286646998 L 39.111802073927485 26.986434135252082 L 35.41962186404438 25.466580021009023 L 33.325933161942196 22.066783137440286 L 33.63045388996231 18.085650339223157 L 36.216867480279916 15.04383904154961 L 40.097251850358326 14.103217772767508 L 43.78943206024143 15.623071887010568 L 45.883120762343616 19.022868770579304 L 45.5786000343235 23.004001568796433 L 42.992186444005895 26.04581286646998" fill="green" /><path d="M 25.71195843326143 13.946623875578972 L 25.123062010429432 10.240751645443218 L 18.79940303569632 11.245637922726822 L 18.465813812228003 9.146390938717794 L 24.789472786961117 8.14150466143419 L 24.20057636412912 4.4356324312984405 L 26.299823348138148 4.102043207830125 L 26.888719770970145 7.8079154379658755 L 33.21237874570326 6.803029160682274 L 33.54596796917157 8.902276144691303 L 27.22230899443846 9.907162421974903 L 27.811205417270457 13.613034652110656 L 25.71195843326143 13.946623875578972" fill="green" /><path 
  d="M29.943588144946574,41.509708658728755 A1,1 0 0,1 40.65213390056182,38.881188103728746"
  fill="red" /><path d="M 30.722825378242792 47.001408728269 L 46.051214314219486 47.82746162819264 L 45.64520552571004 55.361435084702336 L 30.316816589733342 54.53538218477869 L 30.722825378242792 47.001408728269" fill="blue" />
</svg>